<svg width="40" height="40" viewBox="0 0 40 40" fill="none" xmlns="http://www.w3.org/2000/svg">
<path d="M3.33398 16.2497C2.65065 16.2497 2.08398 15.683 2.08398 14.9997V10.833C2.08398 5.99967 6.01732 2.08301 10.834 2.08301H15.0007C15.684 2.08301 16.2507 2.64967 16.2507 3.33301C16.2507 4.01634 15.684 4.58301 15.0007 4.58301H10.834C7.38398 4.58301 4.58398 7.38301 4.58398 10.833V14.9997C4.58398 15.683 4.01732 16.2497 3.33398 16.2497Z" fill="#28CCAF"/>
<path d="M36.6667 16.2497C35.9833 16.2497 35.4167 15.683 35.4167 14.9997V10.833C35.4167 7.38301 32.6167 4.58301 29.1667 4.58301H25C24.3167 4.58301 23.75 4.01634 23.75 3.33301C23.75 2.64967 24.3167 2.08301 25 2.08301H29.1667C33.9833 2.08301 37.9167 5.99967 37.9167 10.833V14.9997C37.9167 15.683 37.35 16.2497 36.6667 16.2497Z" fill="#28CCAF"/>
<path d="M29.166 37.917H26.666C25.9827 37.917 25.416 37.3503 25.416 36.667C25.416 35.9837 25.9827 35.417 26.666 35.417H29.166C32.616 35.417 35.416 32.617 35.416 29.167V26.667C35.416 25.9837 35.9827 25.417 36.666 25.417C37.3493 25.417 37.916 25.9837 37.916 26.667V29.167C37.916 34.0003 33.9827 37.917 29.166 37.917Z" fill="#28CCAF"/>
<path d="M15.0007 37.9167H10.834C6.01732 37.9167 2.08398 34 2.08398 29.1667V25C2.08398 24.3167 2.65065 23.75 3.33398 23.75C4.01732 23.75 4.58398 24.3167 4.58398 25V29.1667C4.58398 32.6167 7.38398 35.4167 10.834 35.4167H15.0007C15.684 35.4167 16.2507 35.9833 16.2507 36.6667C16.2507 37.35 15.684 37.9167 15.0007 37.9167Z" fill="#28CCAF"/>
<path d="M15 8.75H11.6667C9.76667 8.75 8.75 9.75 8.75 11.6667V15C8.75 16.9167 9.76667 17.9167 11.6667 17.9167H15C16.9 17.9167 17.9167 16.9167 17.9167 15V11.6667C17.9167 9.75 16.9 8.75 15 8.75Z" fill="#28CCAF"/>
<path d="M28.334 8.75H25.0007C23.1007 8.75 22.084 9.75 22.084 11.6667V15C22.084 16.9167 23.1007 17.9167 25.0007 17.9167H28.334C30.234 17.9167 31.2507 16.9167 31.2507 15V11.6667C31.2507 9.75 30.234 8.75 28.334 8.75Z" fill="#28CCAF"/>
<path d="M15 22.083H11.6667C9.76667 22.083 8.75 23.083 8.75 24.9997V28.333C8.75 30.2497 9.76667 31.2497 11.6667 31.2497H15C16.9 31.2497 17.9167 30.2497 17.9167 28.333V24.9997C17.9167 23.083 16.9 22.083 15 22.083Z" fill="#28CCAF"/>
<path d="M28.334 22.083H25.0007C23.1007 22.083 22.084 23.083 22.084 24.9997V28.333C22.084 30.2497 23.1007 31.2497 25.0007 31.2497H28.334C30.234 31.2497 31.2507 30.2497 31.2507 28.333V24.9997C31.2507 23.083 30.234 22.083 28.334 22.083Z" fill="#28CCAF"/>
</svg>
